<mxfile host="app.diagrams.net" modified="2021-02-07T13:44:51.706Z" agent="5.0 (Windows NT 10.0; Win64; x64) AppleWebKit/537.36 (KHTML, like Gecko) Chrome/88.0.4324.146 Safari/537.36" etag="3m-jQI1Cqhc0S_LOFQd-" version="14.2.9" type="github">
  <diagram id="3RF-ArCDgJXp9PGC7_Gy" name="Page-1">
    <mxGraphModel dx="811" dy="403" grid="1" gridSize="10" guides="1" tooltips="1" connect="1" arrows="1" fold="1" page="1" pageScale="1" pageWidth="850" pageHeight="1100" math="0" shadow="0">
      <root>
        <mxCell id="0" />
        <mxCell id="1" parent="0" />
        <mxCell id="brGB_xQ3P4HBcdFWpgII-1" value="" style="verticalLabelPosition=bottom;verticalAlign=top;html=1;shadow=0;dashed=0;strokeWidth=1;shape=mxgraph.android.phone2;strokeColor=#c0c0c0;" vertex="1" parent="1">
          <mxGeometry x="420" y="30" width="200" height="390" as="geometry" />
        </mxCell>
        <mxCell id="brGB_xQ3P4HBcdFWpgII-2" value="" style="strokeWidth=1;html=1;shadow=0;dashed=0;shape=mxgraph.android.action_bar;fillColor=#1A1A1A;strokeColor=#c0c0c0;strokeWidth=2;fontColor=#FFFFFF;" vertex="1" parent="1">
          <mxGeometry x="430" y="60" width="182.5" height="30" as="geometry" />
        </mxCell>
        <mxCell id="brGB_xQ3P4HBcdFWpgII-3" value="" style="verticalLabelPosition=bottom;verticalAlign=top;html=1;shadow=0;dashed=0;strokeWidth=1;shape=mxgraph.android.indeterminateSpinner;" vertex="1" parent="1">
          <mxGeometry x="496.25" y="190" width="50" height="50" as="geometry" />
        </mxCell>
        <mxCell id="brGB_xQ3P4HBcdFWpgII-4" value="Focused" style="rounded=1;html=1;shadow=0;dashed=0;whiteSpace=wrap;fontSize=10;fillColor=#666666;align=center;strokeColor=#999999;fontColor=#ffffff;" vertex="1" parent="1">
          <mxGeometry x="450" y="330" width="60" height="26.88" as="geometry" />
        </mxCell>
        <mxCell id="brGB_xQ3P4HBcdFWpgII-5" value="Focused" style="rounded=1;html=1;shadow=0;dashed=0;whiteSpace=wrap;fontSize=10;fillColor=#666666;align=center;strokeColor=#999999;fontColor=#ffffff;" vertex="1" parent="1">
          <mxGeometry x="530" y="330" width="60" height="26.88" as="geometry" />
        </mxCell>
      </root>
    </mxGraphModel>
  </diagram>
</mxfile>
